# xmcd
#
# Track frame offsets: 
#        150
#        19950
#        42500
#
# Disc length: 894 seconds
#
# Revision: 0
# Processed by: cddbd v1.5.2PL0 Copyright (c) Steve Scherf et al.
# Submitted via: ExactAudioCopyFreeDBPlugin 1.0
#
DISCID=21037c03
DTITLE=Another Level - Guess I Was A Fool [CDS)
DYEAR=1998
DGENRE=R&B
TTITLE0=Guess I Was A Fool (Blacksmith R'N'B Radio Rub)
TTITLE1=Guess I Was A Fool (L.A. Mix)
TTITLE2=Be Alone No More (Blacksmith Hip Hop Mix)
EXTD=
EXTT0=
EXTT1=
EXTT2=
PLAYORDER=
